<svg height="512pt" viewBox="0 0 512.00201 512" width="512pt" xmlns="http://www.w3.org/2000/svg"><path d="m486.128906 0h-119.113281c-14.265625 0-25.871094 11.605469-25.871094 25.871094v69.425781h-122.105469c-4.203124 0-7.605468 3.402344-7.605468 7.601563 0 4.199218 3.402344 7.605468 7.605468 7.605468h122.105469v128.109375c0 14.265625 11.605469 25.871094 25.871094 25.871094h69.675781v99.113281h-421.484375v-223.214844c0-16.476562 13.40625-29.878906 29.878907-29.878906h148.601562c4.203125 0 7.605469-3.40625 7.605469-7.605468 0-4.199219-3.402344-7.601563-7.605469-7.601563h-148.601562c-24.859376 0-45.085938 20.222656-45.085938 45.085937v235.277344c0 25.085938 20.40625 45.492188 45.492188 45.492188h94.808593l-8.4375 35.339844h-17.757812c-19.714844 0-35.753907 16.035156-35.753907 35.75v12.007812c0 4.199219 3.402344 7.605469 7.605469 7.605469h207.082031c4.203126 0 7.605469-3.40625 7.605469-7.605469s-3.402343-7.605469-7.605469-7.605469h-199.480468v-4.402343c0-11.328126 9.21875-20.542969 20.546875-20.542969h223.691406c11.328125 0 20.546875 9.214843 20.546875 20.542969v4.402343h-39.953125c-4.203125 0-7.605469 3.40625-7.605469 7.605469s3.402344 7.605469 7.605469 7.605469h47.554687c4.203126 0 7.605469-3.40625 7.605469-7.605469v-12.007812c0-19.714844-16.039062-35.75-35.753906-35.75h-17.757813l-8.4375-35.339844h94.808594c25.082032 0 45.492188-20.40625 45.492188-45.492188v-111.175781h34.230468c14.261719 0 25.871094-11.605469 25.871094-25.871094v-212.742187c-.003906-14.265625-11.609375-25.871094-25.875-25.871094zm-181.726562 456.492188h-156.90625l8.4375-35.339844h140.03125zm102.007812-50.546876h-360.917968c-15.636719 0-28.542969-11.914062-30.121094-27.140624h421.160156c-1.578125 15.226562-14.484375 27.140624-30.121094 27.140624zm-39.394531-390.734374h119.113281c5.878906 0 10.664063 4.78125 10.664063 10.660156v12.085937h-140.4375v-12.085937c0-5.878906 4.78125-10.660156 10.660156-10.660156zm129.777344 196.109374h-140.4375v-158.15625h140.4375zm-10.664063 37.957032h-41.734375c-.03125 0-.066406-.007813-.097656-.007813-.035156 0-.066406.007813-.097656.007813h-77.183594c-5.878906 0-10.664063-4.785156-10.664063-10.664063v-12.085937h140.4375v12.085937c.003907 5.878907-4.78125 10.664063-10.660156 10.664063zm0 0"/><path d="m377.695312 94.675781h44.101563c4.203125 0 7.605469-3.40625 7.605469-7.605469 0-4.199218-3.402344-7.601562-7.605469-7.601562h-44.101563c-4.199218 0-7.601562 3.402344-7.601562 7.601562 0 4.199219 3.402344 7.605469 7.601562 7.605469zm0 0"/><path d="m377.695312 129.933594h74.515626c4.203124 0 7.605468-3.402344 7.605468-7.601563s-3.402344-7.605469-7.605468-7.605469h-74.515626c-4.199218 0-7.601562 3.40625-7.601562 7.605469s3.402344 7.601563 7.601562 7.601563zm0 0"/><path d="m377.695312 165.195312h97.328126c4.199218 0 7.605468-3.40625 7.605468-7.605468 0-4.199219-3.40625-7.601563-7.605468-7.601563h-97.328126c-4.199218 0-7.601562 3.402344-7.601562 7.601563 0 4.199218 3.402344 7.605468 7.601562 7.605468zm0 0"/><path d="m48.769531 161.613281h44.101563c4.199218 0 7.605468-3.40625 7.605468-7.605469 0-4.199218-3.40625-7.601562-7.605468-7.601562h-44.101563c-4.199219 0-7.601562 3.402344-7.601562 7.601562 0 4.199219 3.402343 7.605469 7.601562 7.605469zm0 0"/><path d="m48.769531 196.871094h74.515625c4.199219 0 7.605469-3.402344 7.605469-7.601563s-3.40625-7.605469-7.605469-7.605469h-74.515625c-4.199219 0-7.601562 3.40625-7.601562 7.605469s3.402343 7.601563 7.601562 7.601563zm0 0"/><path d="m48.769531 232.132812h97.328125c4.199219 0 7.601563-3.40625 7.601563-7.605468 0-4.199219-3.402344-7.601563-7.601563-7.601563h-97.328125c-4.199219 0-7.601562 3.402344-7.601562 7.601563 0 4.199218 3.402343 7.605468 7.601562 7.605468zm0 0"/><path d="m199.875 229.210938 38.019531 120.136718c.996094 3.152344 3.914063 5.300782 7.222657 5.308594h.023437c3.296875 0 6.21875-2.121094 7.234375-5.257812l16.898438-52.105469 51.992187-11.238281c3.199219-.691407 5.59375-3.355469 5.949219-6.609376.359375-3.25-1.410156-6.367187-4.382813-7.734374l-112.535156-51.707032c-2.726563-1.253906-5.949219-.78125-8.207031 1.210938-2.253906 1.992187-3.125 5.125-2.214844 7.996094zm95.882812 46.796874-33.972656 7.347657c-2.648437.570312-4.792968 2.507812-5.628906 5.085937l-10.925781 33.691406-25.675781-81.136718zm0 0"/></svg>